<mxfile host="Electron" modified="2023-12-20T13:37:45.954Z" agent="Mozilla/5.0 (Windows NT 10.0; Win64; x64) AppleWebKit/537.36 (KHTML, like Gecko) draw.io/22.1.2 Chrome/114.0.5735.289 Electron/25.9.4 Safari/537.36" etag="ovpBM3nKObe1Atm_Bxfh" version="22.1.2" type="device">
  <diagram name="Page-1" id="Wuz4dkPDkykqLzsxdx_C">
    <mxGraphModel dx="1036" dy="649" grid="1" gridSize="10" guides="1" tooltips="1" connect="1" arrows="1" fold="1" page="1" pageScale="1" pageWidth="850" pageHeight="1100" math="0" shadow="0">
      <root>
        <mxCell id="0" />
        <mxCell id="1" parent="0" />
        <mxCell id="k_PiZwuXWFmpDnnESYzH-4" value="" style="edgeStyle=orthogonalEdgeStyle;rounded=0;orthogonalLoop=1;jettySize=auto;html=1;" edge="1" parent="1" source="k_PiZwuXWFmpDnnESYzH-1" target="k_PiZwuXWFmpDnnESYzH-3">
          <mxGeometry relative="1" as="geometry" />
        </mxCell>
        <mxCell id="k_PiZwuXWFmpDnnESYzH-1" value="Start" style="ellipse;whiteSpace=wrap;html=1;" vertex="1" parent="1">
          <mxGeometry x="350" y="40" width="120" height="80" as="geometry" />
        </mxCell>
        <mxCell id="k_PiZwuXWFmpDnnESYzH-2" value="Verilmiş tələbələr siyahısında GroupName dəyəri PB302 olan tələbələrin Point ortalamasını hesablayan alqoritm" style="whiteSpace=wrap;html=1;aspect=fixed;" vertex="1" parent="1">
          <mxGeometry x="40" y="40" width="120" height="120" as="geometry" />
        </mxCell>
        <mxCell id="k_PiZwuXWFmpDnnESYzH-6" value="" style="edgeStyle=orthogonalEdgeStyle;rounded=0;orthogonalLoop=1;jettySize=auto;html=1;" edge="1" parent="1" source="k_PiZwuXWFmpDnnESYzH-3" target="k_PiZwuXWFmpDnnESYzH-5">
          <mxGeometry relative="1" as="geometry" />
        </mxCell>
        <mxCell id="k_PiZwuXWFmpDnnESYzH-3" value="students" style="shape=parallelogram;perimeter=parallelogramPerimeter;whiteSpace=wrap;html=1;fixedSize=1;" vertex="1" parent="1">
          <mxGeometry x="350" y="190" width="120" height="60" as="geometry" />
        </mxCell>
        <mxCell id="k_PiZwuXWFmpDnnESYzH-8" value="" style="edgeStyle=orthogonalEdgeStyle;rounded=0;orthogonalLoop=1;jettySize=auto;html=1;" edge="1" parent="1" source="k_PiZwuXWFmpDnnESYzH-5" target="k_PiZwuXWFmpDnnESYzH-7">
          <mxGeometry relative="1" as="geometry" />
        </mxCell>
        <mxCell id="k_PiZwuXWFmpDnnESYzH-5" value="sum = 0" style="whiteSpace=wrap;html=1;" vertex="1" parent="1">
          <mxGeometry x="350" y="310" width="120" height="60" as="geometry" />
        </mxCell>
        <mxCell id="k_PiZwuXWFmpDnnESYzH-10" value="" style="edgeStyle=orthogonalEdgeStyle;rounded=0;orthogonalLoop=1;jettySize=auto;html=1;" edge="1" parent="1" source="k_PiZwuXWFmpDnnESYzH-7" target="k_PiZwuXWFmpDnnESYzH-9">
          <mxGeometry relative="1" as="geometry" />
        </mxCell>
        <mxCell id="k_PiZwuXWFmpDnnESYzH-18" value="" style="edgeStyle=orthogonalEdgeStyle;rounded=0;orthogonalLoop=1;jettySize=auto;html=1;" edge="1" parent="1" source="k_PiZwuXWFmpDnnESYzH-7" target="k_PiZwuXWFmpDnnESYzH-17">
          <mxGeometry relative="1" as="geometry" />
        </mxCell>
        <mxCell id="k_PiZwuXWFmpDnnESYzH-7" value="i = 0; i &amp;lt; students.length; i++" style="shape=hexagon;perimeter=hexagonPerimeter2;whiteSpace=wrap;html=1;fixedSize=1;" vertex="1" parent="1">
          <mxGeometry x="310" y="430" width="200" height="80" as="geometry" />
        </mxCell>
        <mxCell id="k_PiZwuXWFmpDnnESYzH-12" value="true" style="edgeStyle=orthogonalEdgeStyle;rounded=0;orthogonalLoop=1;jettySize=auto;html=1;" edge="1" parent="1" source="k_PiZwuXWFmpDnnESYzH-9" target="k_PiZwuXWFmpDnnESYzH-11">
          <mxGeometry relative="1" as="geometry" />
        </mxCell>
        <mxCell id="k_PiZwuXWFmpDnnESYzH-14" value="false" style="edgeStyle=orthogonalEdgeStyle;rounded=0;orthogonalLoop=1;jettySize=auto;html=1;entryX=1;entryY=0.5;entryDx=0;entryDy=0;" edge="1" parent="1" source="k_PiZwuXWFmpDnnESYzH-9" target="k_PiZwuXWFmpDnnESYzH-7">
          <mxGeometry relative="1" as="geometry">
            <Array as="points">
              <mxPoint x="410" y="720" />
              <mxPoint x="740" y="720" />
              <mxPoint x="740" y="470" />
            </Array>
          </mxGeometry>
        </mxCell>
        <mxCell id="k_PiZwuXWFmpDnnESYzH-9" value="students[i].groupName == &quot;PB302&quot;" style="rhombus;whiteSpace=wrap;html=1;" vertex="1" parent="1">
          <mxGeometry x="311.25" y="570" width="197.5" height="90" as="geometry" />
        </mxCell>
        <mxCell id="k_PiZwuXWFmpDnnESYzH-13" style="edgeStyle=orthogonalEdgeStyle;rounded=0;orthogonalLoop=1;jettySize=auto;html=1;entryX=1;entryY=0.5;entryDx=0;entryDy=0;" edge="1" parent="1" source="k_PiZwuXWFmpDnnESYzH-11" target="k_PiZwuXWFmpDnnESYzH-7">
          <mxGeometry relative="1" as="geometry">
            <Array as="points">
              <mxPoint x="640" y="470" />
            </Array>
          </mxGeometry>
        </mxCell>
        <mxCell id="k_PiZwuXWFmpDnnESYzH-11" value="sum += students[i].point" style="whiteSpace=wrap;html=1;" vertex="1" parent="1">
          <mxGeometry x="580" y="585" width="120" height="60" as="geometry" />
        </mxCell>
        <mxCell id="k_PiZwuXWFmpDnnESYzH-20" value="" style="edgeStyle=orthogonalEdgeStyle;rounded=0;orthogonalLoop=1;jettySize=auto;html=1;" edge="1" parent="1" source="k_PiZwuXWFmpDnnESYzH-17" target="k_PiZwuXWFmpDnnESYzH-19">
          <mxGeometry relative="1" as="geometry" />
        </mxCell>
        <mxCell id="k_PiZwuXWFmpDnnESYzH-17" value="average = sum / students.length" style="whiteSpace=wrap;html=1;" vertex="1" parent="1">
          <mxGeometry x="90" y="440" width="120" height="60" as="geometry" />
        </mxCell>
        <mxCell id="k_PiZwuXWFmpDnnESYzH-22" value="" style="edgeStyle=orthogonalEdgeStyle;rounded=0;orthogonalLoop=1;jettySize=auto;html=1;" edge="1" parent="1" source="k_PiZwuXWFmpDnnESYzH-19" target="k_PiZwuXWFmpDnnESYzH-21">
          <mxGeometry relative="1" as="geometry" />
        </mxCell>
        <mxCell id="k_PiZwuXWFmpDnnESYzH-19" value="average" style="shape=document;whiteSpace=wrap;html=1;boundedLbl=1;" vertex="1" parent="1">
          <mxGeometry x="90" y="570" width="120" height="80" as="geometry" />
        </mxCell>
        <mxCell id="k_PiZwuXWFmpDnnESYzH-21" value="End" style="ellipse;whiteSpace=wrap;html=1;" vertex="1" parent="1">
          <mxGeometry x="90" y="680" width="120" height="80" as="geometry" />
        </mxCell>
      </root>
    </mxGraphModel>
  </diagram>
</mxfile>
